# xmcd CD database file
#
# Track frame offsets:
#	150
#	15271
#	57086
#	74661
#	96287
#	126070
#	165537
#
# Disc length: 2506 seconds
#
# Revision: 0
# Processed by: cddbd v1.5PL3 Copyright (c) Steve Scherf et al.
# Submitted via: CDex 1.51
#
DISCID=5409c807
DTITLE=Mijk van dijk - DECADE the Mix (bonus CD)
DYEAR=2003
DGENRE=Techno
TTITLE0=Part 1
TTITLE1=Part 2
TTITLE2=Part 3
TTITLE3=Part 4
TTITLE4=Part 5
TTITLE5=Part 6
TTITLE6=Part 7
EXTD=YEAR: 2003
EXTT0=
EXTT1=
EXTT2=
EXTT3=
EXTT4=
EXTT5=
EXTT6=
PLAYORDER=
